<svg id="Layer_1" xmlns="http://www.w3.org/2000/svg" y="0px" xml:space="preserve" height="340px" width="340px" version="1.1" x="0px" viewBox="0 0 340 340" enable-background="new 0 0 340 340">
  <path opacity=".1" d="m243.9 49.101c-18.883-18.895-44.991-30.59-73.829-30.59h-0.142c-28.838 0-54.95 11.695-73.833 30.59-18.909 18.88-30.593 44.991-30.593 73.816 0 17.086 4.102 33.214 11.377 47.46 7.266 14.233 19.97 26.56 30.42 36.072v94.145h20.898v20.895h83.594v-20.895h20.899v-94.145c10.449-9.511 23.143-21.839 30.409-36.072 7.276-14.245 11.388-30.374 11.388-47.46 0-28.828-11.68-54.939-30.59-73.819zm-32.1 235.82h-83.594v-15.671h83.594v15.67zm0-31.34h-83.594v-15.671h83.594v15.67zm32.72-92.7c-5.755 11.269-14.189 21.27-24.352 28.886l-8.368 6.241v26.226h-83.594v-26.226l-8.368-6.241c-10.164-7.616-18.592-17.618-24.347-28.886-6.036-11.838-9.097-24.576-9.097-37.962 0-22.308 8.704-43.292 24.47-59.035 15.78-15.814 36.75-24.481 59.072-24.481h0.142c22.322 0 43.288 8.667 59.068 24.481 15.766 15.743 24.465 36.728 24.465 59.035-0.01 13.39-3.07 26.13-9.1 37.96z" fill="#333"/>
</svg>
